<svg width="23" height="26" viewBox="0 0 23 26" fill="none" xmlns="http://www.w3.org/2000/svg">
<path d="M4.67709 20.8073C5.39664 20.8073 6.1042 20.8914 6.79977 21.0597C7.49534 21.2039 8.38279 21.4443 9.46212 21.7809C10.3735 22.0694 11.1411 22.2978 11.7647 22.4661C12.4123 22.6103 13.0359 22.6824 13.6355 22.6824C15.0506 22.6824 16.2139 22.3579 17.1254 21.7088C18.0608 21.0597 18.5285 20.2543 18.5285 19.2927C18.5285 18.3551 18.2167 17.6098 17.5931 17.0569C16.9934 16.504 16.2619 16.0953 15.3984 15.8308C14.5589 15.5664 13.4436 15.3019 12.0525 15.0375L11.1531 14.8572C9.13832 14.4725 7.43538 14.0037 6.04424 13.4508C4.65311 12.8738 3.54979 12.0805 2.7343 11.0708C1.91881 10.061 1.51106 8.76285 1.51106 7.17616C1.51106 5.75776 1.90681 4.50764 2.69832 3.42581C3.51382 2.31994 4.65311 1.47851 6.1162 0.901535C7.57929 0.300519 9.25824 0 11.1531 0C13.9593 0 16.3099 0.649099 18.2047 1.9473C20.1235 3.22145 21.3707 4.97644 21.9463 7.21222H18.1687C17.713 6.05827 16.8495 5.14473 15.5783 4.47159C14.3311 3.79845 12.808 3.46187 11.0092 3.46187C9.23426 3.46187 7.81914 3.79845 6.76379 4.47159C5.73244 5.12069 5.21675 6.02221 5.21675 7.17616C5.21675 8.06567 5.52856 8.78689 6.15217 9.33983C6.77578 9.86872 7.54331 10.2654 8.45474 10.5298C9.39016 10.7943 10.6734 11.0707 12.3043 11.3592C14.1992 11.6958 15.8541 12.1165 17.2693 12.6214C18.6844 13.1262 19.8596 13.8835 20.7951 14.8932C21.7305 15.8789 22.1982 17.1651 22.1982 18.7518C22.1982 20.1942 21.8504 21.4684 21.1548 22.5742C20.4833 23.6561 19.5359 24.4975 18.3126 25.0985C17.0894 25.6755 15.6623 25.964 14.0313 25.964C12.9519 25.964 11.9566 25.8558 11.0451 25.6394C10.1337 25.4471 9.10234 25.1586 7.95105 24.774C7.3994 24.5816 6.84774 24.4254 6.29609 24.3052C5.76841 24.1609 5.3127 24.0888 4.92894 24.0888C4.44923 24.0888 4.08946 24.209 3.84961 24.4494C3.60975 24.6658 3.48983 24.9663 3.48983 25.351V25.6034H0C0 22.406 1.55903 20.8073 4.67709 20.8073Z" fill="#8DD89E"/>
</svg>
