<svg width="36" height="36" viewBox="0 0 36 36" fill="none" xmlns="http://www.w3.org/2000/svg">
<path d="M25.495 0.262371C25.9742 -0.307316 26.8985 0.1237 26.7701 0.856977L24.2337 15.3443C24.1889 15.6 24.2837 15.8603 24.4824 16.0274L35.7376 25.495C36.3073 25.9742 35.8763 26.8985 35.143 26.7701L20.6557 24.2337C20.4 24.1889 20.1397 24.2837 19.9726 24.4824L10.505 35.7376C10.0258 36.3073 9.10149 35.8763 9.22987 35.143L11.7663 20.6557C11.8111 20.4 11.7163 20.1397 11.5176 19.9726L0.26237 10.505C-0.307317 10.0258 0.1237 9.10149 0.856978 9.22987L15.3443 11.7663C15.6 11.8111 15.8603 11.7163 16.0274 11.5176L25.495 0.262371Z" fill="#8DD89E"/>
</svg>
