<svg width="260" height="80" viewBox="0 0 260 80" fill="none" xmlns="http://www.w3.org/2000/svg">
<path d="M40 18C38.8955 18 38 18.8955 38 20V39.4961L32.2383 50.25C31.7173 51.2227 32.082 52.436 33.0547 52.957C33.3447 53.1147 33.6699 53.1965 34 53.1953C34.7368 53.1956 35.4138 52.79 35.7617 52.1406L41.7617 40.9453C41.9175 40.6545 41.9995 40.3298 42 40V20C42 18.8955 41.1045 18 40 18Z" fill="#F5F6F1"/>
<path d="M109.391 32.2695L102 36.5352V20C102 18.8955 101.104 18 100 18C98.8955 18 98 18.8955 98 20V40C98.002 41.1038 98.8962 41.998 100 42C100.351 42 100.696 41.907 101 41.7305L111.391 35.7305C112.346 35.1782 112.673 33.9558 112.121 33C111.569 32.0442 110.346 31.7173 109.391 32.2695Z" fill="#8DD89E"/>
<path d="M160 18C158.896 18 158 18.8955 158 20V36.5352L150.609 32.2695C149.654 31.7173 148.431 32.0442 147.879 33C147.327 33.9558 147.654 35.1782 148.609 35.7305L159 41.7305C159.304 41.907 159.649 42 160 42C161.104 41.998 161.998 41.1038 162 40V20C162 18.8955 161.104 18 160 18Z" fill="#8DD89E"/>
<path d="M234 38H222V18C222 16.8955 221.104 16 220 16C218.896 16 218 16.8955 218 18V40C218.001 41.104 218.896 42.0007 220 42H234C235.104 42 236 41.1045 236 40C236 38.8955 235.104 38 234 38ZM220 0C208.053 0 197.329 5.23759 190 13.5418C189.099 14.5624 188.25 15.6293 187.455 16.7386C182.762 23.2929 180 31.3239 180 40C180 48.6821 182.766 56.7181 187.465 63.275C188.253 64.374 189.095 65.4316 189.987 66.4436C197.317 74.7563 208.046 80 220 80C242.081 79.9741 259.974 62.0806 260 40C260 17.9087 242.091 0 220 0ZM220 76C208.985 76 199.126 71.0534 192.523 63.2604C191.619 62.194 190.776 61.0744 190 59.9068C186.209 54.205 184 47.3605 184 40C184 32.6455 186.205 25.806 189.991 20.1069C190.773 18.9291 191.623 17.8 192.535 16.725C199.138 8.94048 208.992 4 220 4C239.873 4.02173 255.978 20.1267 256 40C256 59.8823 239.882 76 220 76Z" fill="#8DD89E"/>
<path d="M40 0C17.9087 0 0 17.9087 0 40C0 62.0913 17.9087 80 40 80C51.9418 79.986 62.6588 74.7458 69.9871 66.4436C69.0948 65.4316 68.2528 64.374 67.4651 63.275C60.8616 71.0595 51.0078 76 40 76C20.1177 76 4 59.8823 4 40C4 20.1177 20.1177 4 40 4C51.004 4.01203 60.8527 8.9551 67.4554 16.7386C68.2497 15.6293 69.0992 14.5624 70 13.5418C62.6705 5.23759 51.9469 0 40 0Z" fill="#F5F6F1"/>
<path d="M127.455 16.7386C128.25 15.6293 129.099 14.5624 130 13.5418C122.671 5.23759 111.947 0 100 0C88.0531 0 77.3295 5.23759 70 13.5418C70.8971 14.5583 71.7434 15.6207 72.5349 16.725C79.1384 8.94048 88.9922 4 100 4C111.004 4.01203 120.853 8.9551 127.455 16.7386Z" fill="#8DD89E"/>
<path d="M69.9909 20.1069C70.7069 18.7046 71.2194 17.95 72.5349 16.725C71.7434 15.6207 70.8971 14.5583 70 13.5418C69.0992 14.5624 68.2497 15.6293 67.4554 16.7386C68.3638 17.8094 69.2108 18.934 69.9909 20.1069Z" fill="#8DD89E"/>
<path d="M64 40C64 32.6455 66.2054 25.806 69.9909 20.1069C69.2108 18.934 68.3638 17.8094 67.4554 16.7386C62.7623 23.2929 60 31.3239 60 40C60 48.6821 62.7661 56.7181 67.4651 63.275C68.3734 62.2042 69.2202 61.0797 70 59.9068C66.2089 54.205 64 47.3605 64 40Z" fill="#8DD89E"/>
<path d="M129.987 66.4436C129.095 65.4316 128.253 64.374 127.465 63.275C120.862 71.0595 111.008 76 100 76C88.9853 76 79.1261 71.0534 72.5225 63.2604C71.7308 64.3647 70.8844 65.4271 69.9871 66.4436C77.3169 74.7563 88.0461 80 100 80C111.942 79.986 122.659 74.7458 129.987 66.4436Z" fill="#8DD89E"/>
<path d="M72.5225 63.2604C71.203 62.1972 70.6968 61.4291 70 59.9068C69.2202 61.0797 68.3734 62.2042 67.4651 63.275C68.2528 64.374 69.0948 65.4316 69.9871 66.4436C70.8844 65.4271 71.7308 64.3647 72.5225 63.2604Z" fill="#8DD89E"/>
<path d="M187.455 16.7386C188.25 15.6293 189.099 14.5624 190 13.5418C182.671 5.23759 171.947 0 160 0C148.053 0 137.329 5.23759 130 13.5418C130.897 14.5583 131.743 15.6207 132.535 16.725C139.138 8.94048 148.992 4 160 4C171.004 4.01203 180.853 8.95509 187.455 16.7386Z" fill="#8DD89E"/>
<path d="M129.991 20.1069C130.808 18.6903 131.366 17.9451 132.535 16.725C131.743 15.6207 130.897 14.5583 130 13.5418C129.099 14.5624 128.25 15.6293 127.455 16.7386C128.364 17.8094 129.211 18.934 129.991 20.1069Z" fill="#8DD89E"/>
<path d="M124 40C124 32.6455 126.205 25.806 129.991 20.1069C129.211 18.934 128.364 17.8094 127.455 16.7386C122.762 23.2929 120 31.3239 120 40C120 48.6821 122.766 56.7181 127.465 63.275C128.373 62.2042 129.22 61.0797 130 59.9068C126.209 54.205 124 47.3605 124 40Z" fill="#8DD89E"/>
<path d="M132.523 63.2604C131.619 62.194 130.776 61.0744 130 59.9068C129.22 61.0797 128.373 62.2042 127.465 63.275C128.253 64.374 129.095 65.4316 129.987 66.4436C130.884 65.4271 131.731 64.3647 132.523 63.2604Z" fill="#8DD89E"/>
<path d="M189.987 66.4436C189.095 65.4316 188.253 64.374 187.465 63.275C180.862 71.0595 171.008 76 160 76C148.985 76 139.126 71.0534 132.523 63.2604C131.731 64.3647 130.884 65.4271 129.987 66.4436C137.317 74.7563 148.046 80 160 80C171.942 79.986 182.659 74.7458 189.987 66.4436Z" fill="#8DD89E"/>
</svg>
