<svg width="420" height="20" viewBox="0 0 420 20" fill="none" xmlns="http://www.w3.org/2000/svg">
<path d="M0 0H10V10H0V0Z" fill="#8DD89E"/>
<path d="M40 0H50V10H40V0Z" fill="#8DD89E"/>
<path d="M80 0H90V10H80V0Z" fill="#8DD89E"/>
<path d="M120 0H130V10H120V0Z" fill="#8DD89E"/>
<path d="M160 0H170V10H160V0Z" fill="#8DD89E"/>
<path d="M200 0H210V10H200V0Z" fill="#8DD89E"/>
<path d="M240 0H250V10H240V0Z" fill="#8DD89E"/>
<path d="M280 0H290V10H280V0Z" fill="#8DD89E"/>
<path d="M320 0H330V10H320V0Z" fill="#8DD89E"/>
<path d="M360 0H370V10H360V0Z" fill="#8DD89E"/>
<path d="M10 10H20V20H10V10Z" fill="#8DD89E"/>
<path d="M50 10H60V20H50V10Z" fill="#8DD89E"/>
<path d="M90 10H100V20H90V10Z" fill="#8DD89E"/>
<path d="M130 10H140V20H130V10Z" fill="#8DD89E"/>
<path d="M170 10H180V20H170V10Z" fill="#8DD89E"/>
<path d="M210 10H220V20H210V10Z" fill="#8DD89E"/>
<path d="M250 10H260V20H250V10Z" fill="#8DD89E"/>
<path d="M290 10H300V20H290V10Z" fill="#8DD89E"/>
<path d="M330 10H340V20H330V10Z" fill="#8DD89E"/>
<path d="M370 10H380V20H370V10Z" fill="#8DD89E"/>
<path d="M20 0H30V10H20V0Z" fill="#8DD89E"/>
<path d="M60 0H70V10H60V0Z" fill="#8DD89E"/>
<path d="M100 0H110V10H100V0Z" fill="#8DD89E"/>
<path d="M140 0H150V10H140V0Z" fill="#8DD89E"/>
<path d="M180 0H190V10H180V0Z" fill="#8DD89E"/>
<path d="M220 0H230V10H220V0Z" fill="#8DD89E"/>
<path d="M260 0H270V10H260V0Z" fill="#8DD89E"/>
<path d="M300 0H310V10H300V0Z" fill="#8DD89E"/>
<path d="M340 0H350V10H340V0Z" fill="#8DD89E"/>
<path d="M380 0H390V10H380V0Z" fill="#8DD89E"/>
<path d="M30 10H40V20H30V10Z" fill="#8DD89E"/>
<path d="M70 10H80V20H70V10Z" fill="#8DD89E"/>
<path d="M110 10H120V20H110V10Z" fill="#8DD89E"/>
<path d="M150 10H160V20H150V10Z" fill="#8DD89E"/>
<path d="M190 10H200V20H190V10Z" fill="#8DD89E"/>
<path d="M230 10H240V20H230V10Z" fill="#8DD89E"/>
<path d="M270 10H280V20H270V10Z" fill="#8DD89E"/>
<path d="M310 10H320V20H310V10Z" fill="#8DD89E"/>
<path d="M350 10H360V20H350V10Z" fill="#8DD89E"/>
<path d="M390 10H400V20H390V10Z" fill="#8DD89E"/>
<path d="M400 0H410V10H400V0Z" fill="#8DD89E"/>
<path d="M410 10H420V20H410V10Z" fill="#8DD89E"/>
</svg>
