<svg width="150" height="26" viewBox="0 0 150 26" fill="none" xmlns="http://www.w3.org/2000/svg">
<path d="M4.67709 20.8072C5.39664 20.8072 6.1042 20.8914 6.79977 21.0596C7.49534 21.2039 8.38279 21.4443 9.46212 21.7809C10.3735 22.0693 11.1411 22.2977 11.7647 22.466C12.4123 22.6103 13.0359 22.6824 13.6355 22.6824C15.0506 22.6824 16.2139 22.3578 17.1254 21.7087C18.0608 21.0596 18.5285 20.2543 18.5285 19.2927C18.5285 18.3551 18.2167 17.6098 17.5931 17.0569C16.9934 16.5039 16.2619 16.0952 15.3984 15.8308C14.5589 15.5663 13.4436 15.3019 12.0525 15.0374L11.1531 14.8571C9.13832 14.4725 7.43538 14.0037 6.04424 13.4508C4.65311 12.8738 3.54979 12.0804 2.7343 11.0707C1.91881 10.061 1.51106 8.76283 1.51106 7.17614C1.51106 5.75774 1.90681 4.50763 2.69832 3.4258C3.51381 2.31993 4.65311 1.4785 6.1162 0.901525C7.57929 0.300508 9.25824 0 11.1531 0C13.9593 0 16.3099 0.649099 18.2047 1.9473C20.1235 3.22145 21.3707 4.97642 21.9464 7.2122H18.1687C17.713 6.05825 16.8495 5.14471 15.5783 4.47157C14.3311 3.79843 12.808 3.46186 11.0092 3.46186C9.23426 3.46186 7.81914 3.79843 6.76379 4.47157C5.73244 5.12067 5.21676 6.02219 5.21676 7.17614C5.21676 8.06565 5.52856 8.78687 6.15217 9.33981C6.77579 9.8687 7.54331 10.2654 8.45474 10.5298C9.39016 10.7943 10.6734 11.0707 12.3043 11.3592C14.1992 11.6958 15.8541 12.1165 17.2693 12.6214C18.6844 13.1262 19.8597 13.8835 20.7951 14.8932C21.7305 15.8789 22.1982 17.165 22.1982 18.7517C22.1982 20.1942 21.8504 21.4683 21.1548 22.5742C20.4833 23.656 19.5359 24.4975 18.3126 25.0985C17.0894 25.6755 15.6623 25.9639 14.0313 25.9639C12.9519 25.9639 11.9566 25.8558 11.0451 25.6394C10.1337 25.4471 9.10234 25.1586 7.95106 24.7739C7.3994 24.5816 6.84774 24.4253 6.29609 24.3051C5.76841 24.1609 5.3127 24.0888 4.92894 24.0888C4.44923 24.0888 4.08946 24.209 3.84961 24.4494C3.60976 24.6657 3.48983 24.9662 3.48983 25.3509V25.6033H0C0 22.4059 1.55903 20.8072 4.67709 20.8072Z" fill="#F5F6F1"/>
<path d="M38.8364 25.6033L37.937 23.3315L24.7692 26C24.5054 24.798 24.3734 23.6921 24.3734 22.6824C24.3734 19.8937 25.2009 17.5617 26.8559 15.6865C28.5109 13.7873 30.7775 12.6214 33.6557 12.1886L31.8568 7.57282H35.4545L42.4342 25.6033H38.8364ZM36.8937 20.5548L34.735 15.0014C32.5763 15.2899 30.8854 16.0111 29.6622 17.165C28.4629 18.319 27.8633 19.8095 27.8633 21.6366C27.8633 21.9491 27.8753 22.1896 27.8992 22.3578L36.8937 20.5548Z" fill="#F5F6F1"/>
<path d="M72.9387 25.6033H69.5209V10.8183H69.233C66.5707 10.8183 64.544 11.7078 63.1528 13.4868C61.7857 15.2418 61.1021 17.742 61.1021 20.9875V25.6033H57.6842V20.9875C57.6842 17.742 56.9887 15.2418 55.5975 13.4868C54.2304 11.7078 52.2156 10.8183 49.5533 10.8183H49.2655V25.6033H45.8476V7.57282H49.4453C51.8439 7.57282 53.8946 8.07767 55.5975 9.08738C57.3005 10.0971 58.5717 11.5515 59.4111 13.4508C60.2266 11.5515 61.4859 10.0971 63.1888 9.08738C64.8917 8.07767 66.9425 7.57282 69.341 7.57282H72.9387V25.6033Z" fill="#F5F6F1"/>
<path d="M94.8882 7.57282V25.6033H90.9306C86.8772 25.6033 83.7351 24.5816 81.5045 22.5381C79.2739 20.4706 78.1586 17.5737 78.1586 13.8474V7.57282H81.6124V12.9098C81.6124 16.1073 82.368 18.4873 83.879 20.0499C85.4141 21.5885 87.8486 22.3578 91.1825 22.3578H91.4703V7.57282H94.8882Z" fill="#F5F6F1"/>
<path d="M104.615 7.57282C106.246 7.57282 107.841 7.87332 109.4 8.47434C110.983 9.07536 112.314 9.9889 113.393 11.215C114.497 12.4411 115.168 13.9436 115.408 15.7226H111.594C111.187 14.0398 110.359 12.8137 109.112 12.0444C107.865 11.251 106.186 10.8423 104.075 10.8183V25.6033H100.657V7.57282H104.615Z" fill="#F5F6F1"/>
<path d="M130.221 25.6033L129.322 23.3315L116.154 26C115.89 24.798 115.758 23.6921 115.758 22.6824C115.758 19.8937 116.586 17.5617 118.24 15.6865C119.895 13.7873 122.162 12.6214 125.04 12.1886L123.241 7.57282H126.839L133.819 25.6033H130.221ZM128.278 20.5548L126.12 15.0014C123.961 15.2899 122.27 16.0111 121.047 17.165C119.847 18.319 119.248 19.8095 119.248 21.6366C119.248 21.9491 119.26 22.1896 119.284 22.3578L128.278 20.5548Z" fill="#8DD89E"/>
<path d="M140.65 7.57282V25.6033H137.232V7.57282H140.65ZM140.866 0.36061V4.32732H137.052V0.36061H140.866Z" fill="#2DDA8D"/>
<path d="M150 21.6366V25.6033H146.042V21.6366H150Z" fill="#F5F6F1"/>
</svg>
