<svg width="16" height="21" viewBox="0 0 16 21" fill="none" xmlns="http://www.w3.org/2000/svg">
<path d="M13.6174 5.08442C13.6649 2.57337 11.6242 0.645745 8.81826 0.645745H3.01523C2.87996 0.645789 2.74915 0.694853 2.64634 0.784107C2.54352 0.873361 2.47546 0.996944 2.4544 1.13261L0.128829 15.8858C0.118426 15.9526 0.122415 16.021 0.140521 16.0861C0.158628 16.1513 0.190422 16.2116 0.233713 16.2631C0.277005 16.3146 0.330767 16.3559 0.391297 16.3842C0.451827 16.4126 0.517687 16.4272 0.584343 16.4273H4.0227L3.48497 19.8439C3.47456 19.9108 3.47856 19.9792 3.49669 20.0444C3.51482 20.1095 3.54666 20.1699 3.59 20.2214C3.63334 20.2729 3.68716 20.3142 3.74774 20.3425C3.80832 20.3708 3.87423 20.3854 3.94093 20.3854H6.74156C6.8771 20.3854 6.99754 20.3358 7.1002 20.2469C7.20285 20.1575 7.21974 20.0343 7.24063 19.8985L8.06277 14.987C8.08366 14.8516 8.15166 14.6756 8.25476 14.5863C8.35742 14.4969 8.44718 14.4482 8.58228 14.4477H10.2968C13.0445 14.4477 15.3763 12.4651 15.8025 9.70675C16.1038 7.74844 15.2768 5.96747 13.6174 5.08442Z" fill="#001C64"/>
<path d="M4.76663 10.9864L3.37253 19.9585C3.36213 20.0254 3.36613 20.0938 3.38426 20.159C3.40239 20.2241 3.43422 20.2845 3.47756 20.336C3.5209 20.3875 3.57472 20.4288 3.63531 20.4571C3.69589 20.4854 3.7618 20.5 3.82849 20.5H6.79267C6.92786 20.4998 7.05857 20.4507 7.16129 20.3615C7.26401 20.2722 7.33201 20.1487 7.35306 20.0131L8.13432 14.9865C8.15539 14.851 8.2234 14.7275 8.32613 14.6383C8.42886 14.5491 8.55956 14.5001 8.69472 14.5001H10.4399C13.1876 14.5001 15.519 12.4651 15.9452 9.70675C16.2474 7.74889 15.2768 5.96792 13.6174 5.08442C13.6129 5.29289 13.5952 5.5009 13.5636 5.70711C13.1374 8.46498 10.8056 10.5005 8.05789 10.5005H5.32702C5.19194 10.5005 5.06129 10.5494 4.95857 10.6385C4.85584 10.7276 4.78779 10.8509 4.76663 10.9864Z" fill="#0070E0"/>
<path d="M3.90982 16.5004H0.461243C0.394564 16.5004 0.328666 16.4858 0.268099 16.4575C0.207532 16.4292 0.153738 16.3878 0.110431 16.3363C0.0671239 16.2849 0.0353347 16.2245 0.017258 16.1593C-0.000818659 16.0941 -0.00475224 16.0258 0.00572871 15.9589L2.33085 0.986418C2.35192 0.850791 2.42 0.727262 2.52283 0.638083C2.62565 0.548903 2.75646 0.499935 2.89169 0.5H8.81871C11.6242 0.5 13.6649 2.57337 13.6174 5.08442C12.9192 4.71262 12.0989 4.50009 11.1998 4.50009H6.25849C6.12337 4.50022 5.99271 4.54927 5.89 4.63843C5.78729 4.72758 5.71925 4.851 5.6981 4.98651L3.90982 16.5004Z" fill="#003087"/>
</svg>
