<svg width="20" height="20" viewBox="0 0 20 20" fill="none" xmlns="http://www.w3.org/2000/svg">
<path d="M9.64439 0.272527C9.74223 -0.0908419 10.2578 -0.0908426 10.3556 0.272527L12.2886 7.45158C12.3227 7.57832 12.4217 7.67732 12.5484 7.71144L19.7275 9.64439C20.0908 9.74223 20.0908 10.2578 19.7275 10.3556L12.5484 12.2886C12.4217 12.3227 12.3227 12.4217 12.2886 12.5484L10.3556 19.7275C10.2578 20.0908 9.74223 20.0908 9.64439 19.7275L7.71144 12.5484C7.67732 12.4217 7.57832 12.3227 7.45158 12.2886L0.272527 10.3556C-0.0908419 10.2578 -0.0908426 9.74223 0.272527 9.64439L7.45158 7.71144C7.57832 7.67732 7.67732 7.57832 7.71144 7.45158L9.64439 0.272527Z" fill="#8DD89E"/>
</svg>
